#!OML:ASF G:\acrobat\cartwheel_test\acrobat_wednesday\Session 1\acrobatwednesday.ASF
:FULLY-SPECIFIED
:DEGREES
320
root 23.6486 14.4287 9.88681 -201.804 -11.9663 -365.25
lowerback 10.5528 3.2614 2.33508
upperback -4.38346 4.42632 -3.9404
thorax -10.1649 1.85714 -6.42967
lowerneck -35.5439 0.332632 2.09019
upperneck 5.72652 -1.57112 6.3742
head 7.15929 0.00248683 1.66865
rclavicle 1.51076e-014 2.38542e-015
rhumerus 51.8852 -46.2046 -19.9809
rradius 34.3541
rwrist 60.43
rhand -56.9479 96.3507
rfingers 7.12502
rthumb -29.2417 124.073
lclavicle 1.51076e-014 2.38542e-015
lhumerus 72.5966 29.8863 35.6234
lradius 44.958
lwrist 51.2081
lhand -59.1068 -87.1964
lfingers 7.12502
lthumb -31.3011 -59.8527
rfemur 23.5225 -358.477 -0.188076
rtibia 61.5946
rfoot -18.9449 3.59975
rtoes -3.08535
lfemur -36.415 16.3103 12.635
ltibia 41.8732
lfoot 164.917 175.386
ltoes 59.943
321
root 23.993 14.4286 9.79406 -203.447 -13.2755 -367.57
lowerback 11.2874 3.20156 2.75025
upperback -3.95483 4.27552 -5.17208
thorax -10.0252 1.71492 -8.03594
lowerneck -34.6381 -0.14877 2.83083
upperneck 5.45382 -2.61443 7.03934
head 6.99038 -0.453596 1.61528
rclavicle -1.27222e-013 -4.69132e-014
rhumerus 46.6732 -44.0856 -13.2107
rradius 33.44
rwrist 56.3627
rhand -56.604 93.441
rfingers 7.12502
rthumb -28.9133 121.22
lclavicle -1.27222e-013 -4.69132e-014
lhumerus 70.2485 29.3396 30.8295
lradius 45.2379
lwrist 54.3365
lhand -59.0351 -89.9711
lfingers 7.12502
lthumb -31.2328 -62.6142
rfemur 22.7891 -354.56 2.33406
rtibia 61.4217
rfoot -20.0868 3.71906
rtoes 5.39211
lfemur -37.6976 16.5923 14.9399
ltibia 34.7214
lfoot 166.676 173.067
ltoes 58.9681
322
root 24.3378 14.4447 9.68655 -205.191 -14.2019 -369.883
lowerback 12.5296 3.17172 2.92888
upperback -3.54584 4.16521 -5.9905
thorax -10.2508 1.6027 -9.1285
lowerneck -34.1199 -0.5335 2.86382
upperneck 5.82191 -3.25067 7.65056
head 7.08876 -0.697152 1.72258
rclavicle 1.1609e-013 -1.66979e-014
rhumerus 43.0256 -41.681 -7.54532
rradius 32.5488
rwrist 52.5367
rhand -56.8185 273.083
rfingers 7.12502
rthumb -29.1182 114.661
lclavicle 1.1609e-013 -1.66979e-014
lhumerus 68.2529 29.3037 27.0055
lradius 45.0007
lwrist 56.8633
lhand -59.8436 -265.321
lfingers 7.12502
lthumb -32.0029 -67.4739
rfemur 22.1605 -350.256 5.1853
rtibia 61.3422
rfoot -20.2345 4.99338
rtoes 5.79628
lfemur -37.9949 15.6588 18.6948
ltibia 26.8431
lfoot 168.694 166.844
ltoes 62.6894
323
root 24.6882 14.4671 9.55831 -207.005 -15.0679 -372.243
lowerback 13.9607 3.13116 2.71204
upperback -3.02455 4.0128 -6.31636
thorax -10.5259 1.50982 -9.44364
lowerneck -34.0786 -0.811323 2.05247
upperneck 6.43441 -3.379 8.02153
head 7.32348 -0.716234 1.95956
rclavicle 7.55382e-015 -2.74323e-014
rhumerus 42.2967 -39.8168 -4.01972
rradius 31.5731
rwrist 49.7765
rhand -57.5431 281.778
rfingers 7.12502
rthumb -29.8099 105.843
lclavicle 7.55382e-015 -2.74323e-014
lhumerus 69.5896 28.7245 29.3946
lradius 43.1834
lwrist 54.6231
lhand -60.5926 -263.592
lfingers 7.12502
lthumb -32.7159 -69.3481
rfemur 21.769 -345.834 8.15736
rtibia 61.034
rfoot -19.7988 5.96569
rtoes -1.22858
lfemur -38.1156 13.6398 23.315
ltibia 19.1933
lfoot 166.197 162.66
ltoes 65.9318
324
root 25.0408 14.4896 9.40615 -208.824 -15.9766 -374.558
lowerback 15.3576 3.1028 2.41118
upperback -2.37073 3.85688 -6.57572
thorax -10.6361 1.43352 -9.61584
lowerneck -34.1122 -1.09909 0.944697
upperneck 6.62592 -3.39508 8.58374
head 7.44453 -0.685451 2.30779
rclavicle -2.16675e-014 1.23246e-014
rhumerus 42.3668 -38.8629 -1.67878
rradius 31.0948
rwrist 47.3501
rhand -58.1222 292.027
rfingers 7.12502
rthumb -30.3624 95.4936
lclavicle -2.16675e-014 1.23246e-014
lhumerus 70.9801 28.7259 31.9888
lradius 42.0174
lwrist 52.6108
lhand -60.6323 -265.442
lfingers 7.12502
lthumb -32.7536 -67.506
rfemur 21.3554 -341.913 11.0712
rtibia 60.4305
rfoot -19.1707 6.60711
rtoes -3.83389
lfemur -37.8687 9.03448 30.211
ltibia 12.5798
lfoot 162.471 155.565
ltoes 59.4649
